<mxfile host="app.diagrams.net" modified="2023-06-07T12:04:18.455Z" agent="Mozilla/5.0 (Windows NT 10.0; Win64; x64) AppleWebKit/537.36 (KHTML, like Gecko) Chrome/114.0.0.0 Safari/537.36" etag="BYi3RjsgDJPoo1y7bnQl" version="21.3.7" type="github">
  <diagram id="6a731a19-8d31-9384-78a2-239565b7b9f0" name="Page-1">
    <mxGraphModel dx="2390" dy="1165" grid="1" gridSize="10" guides="1" tooltips="1" connect="1" arrows="1" fold="1" page="1" pageScale="1" pageWidth="827" pageHeight="1169" background="none" math="0" shadow="0">
      <root>
        <mxCell id="0" />
        <mxCell id="1" parent="0" />
        <mxCell id="2091" value="BMS&amp;nbsp; &amp;nbsp; &amp;nbsp; &amp;nbsp; &amp;nbsp; &amp;nbsp; &amp;nbsp; &amp;nbsp; &amp;nbsp; &amp;nbsp; &amp;nbsp;" style="rounded=1;whiteSpace=wrap;html=1;strokeColor=none;fillColor=#BAC8D3;fontSize=24;fontColor=#23445D;align=center;opacity=60;" parent="1" vertex="1">
          <mxGeometry x="959" y="599" width="283" height="85" as="geometry" />
        </mxCell>
        <mxCell id="2093" value="IPTV&amp;nbsp; &amp;nbsp; &amp;nbsp; &amp;nbsp; &amp;nbsp; &amp;nbsp; &amp;nbsp; &amp;nbsp; &amp;nbsp; &amp;nbsp; &amp;nbsp;&amp;nbsp;" style="rounded=1;whiteSpace=wrap;html=1;strokeColor=none;fillColor=#BAC8D3;fontSize=24;fontColor=#23445D;align=center;opacity=60;" parent="1" vertex="1">
          <mxGeometry x="10" y="449" width="290" height="86" as="geometry" />
        </mxCell>
        <mxCell id="2108" value="" style="shape=mxgraph.cisco.security.pix_firewall;html=1;dashed=0;fillColor=#10739E;strokeColor=#ffffff;strokeWidth=2;verticalLabelPosition=bottom;verticalAlign=top;fontFamily=Helvetica;fontSize=36;fontColor=#FFB366" parent="1" vertex="1">
          <mxGeometry x="725" y="198" width="77" height="51" as="geometry" />
        </mxCell>
        <mxCell id="2109" value="Internet" style="shape=mxgraph.cisco.storage.cloud;html=1;dashed=0;strokeColor=#23445D;fillColor=#ffffff;strokeWidth=2;fontFamily=Helvetica;fontSize=24;fontColor=#23445D;align=center;fontStyle=1" parent="1" vertex="1">
          <mxGeometry x="366" y="33" width="186" height="106" as="geometry" />
        </mxCell>
        <mxCell id="2110" value="PSTN" style="shape=mxgraph.cisco.storage.cloud;html=1;dashed=0;strokeColor=#23445D;fillColor=#ffffff;strokeWidth=2;fontFamily=Helvetica;fontSize=24;fontColor=#23445D;fontStyle=1" parent="1" vertex="1">
          <mxGeometry x="366" y="156" width="186" height="106" as="geometry" />
        </mxCell>
        <mxCell id="2111" value="" style="shape=mxgraph.cisco.servers.communications_server;html=1;dashed=0;fillColor=#10739E;strokeColor=#ffffff;strokeWidth=2;verticalLabelPosition=bottom;verticalAlign=top;fontFamily=Helvetica;fontSize=36;fontColor=#FFB366" parent="1" vertex="1">
          <mxGeometry x="539" y="192" width="54" height="56" as="geometry" />
        </mxCell>
        <mxCell id="2112" value="" style="shape=mxgraph.cisco.switches.layer_3_switch;html=1;dashed=0;fillColor=#10739E;strokeColor=#ffffff;strokeWidth=2;verticalLabelPosition=bottom;verticalAlign=top;fontFamily=Helvetica;fontSize=36;fontColor=#FFB366" parent="1" vertex="1">
          <mxGeometry x="631" y="370" width="64" height="64" as="geometry" />
        </mxCell>
        <mxCell id="2113" value="" style="shape=mxgraph.cisco.switches.layer_3_switch;html=1;dashed=0;fillColor=#10739E;strokeColor=#ffffff;strokeWidth=2;verticalLabelPosition=bottom;verticalAlign=top;fontFamily=Helvetica;fontSize=36;fontColor=#FFB366" parent="1" vertex="1">
          <mxGeometry x="1240" y="370" width="64" height="64" as="geometry" />
        </mxCell>
        <mxCell id="2114" value="" style="shape=mxgraph.cisco.switches.workgroup_switch;html=1;dashed=0;fillColor=#10739E;strokeColor=#ffffff;strokeWidth=2;verticalLabelPosition=bottom;verticalAlign=top;fontFamily=Helvetica;fontSize=36;fontColor=#FFB366" parent="1" vertex="1">
          <mxGeometry x="124" y="384" width="101" height="50" as="geometry" />
        </mxCell>
        <mxCell id="2117" value="" style="shape=mxgraph.cisco.switches.workgroup_switch;html=1;dashed=0;fillColor=#10739E;strokeColor=#ffffff;strokeWidth=2;verticalLabelPosition=bottom;verticalAlign=top;fontFamily=Helvetica;fontSize=36;fontColor=#FFB366" parent="1" vertex="1">
          <mxGeometry x="1168" y="534" width="101" height="50" as="geometry" />
        </mxCell>
        <mxCell id="2120" value="" style="shape=mxgraph.cisco.misc.access_point;html=1;dashed=0;fillColor=#10739E;strokeColor=#ffffff;strokeWidth=2;verticalLabelPosition=bottom;verticalAlign=top;fontFamily=Helvetica;fontSize=36;fontColor=#FFB366" parent="1" vertex="1">
          <mxGeometry x="205" y="475" width="75" height="34" as="geometry" />
        </mxCell>
        <mxCell id="2138" value="" style="shape=mxgraph.cisco.routers.router;html=1;dashed=0;fillColor=#10739E;strokeColor=#ffffff;strokeWidth=2;verticalLabelPosition=bottom;verticalAlign=top;fontFamily=Helvetica;fontSize=36;fontColor=#FFB366" parent="1" vertex="1">
          <mxGeometry x="539" y="68" width="78" height="53" as="geometry" />
        </mxCell>
        <mxCell id="2140" value="" style="shape=mxgraph.cisco.hubs_and_gateways.100baset_hub;html=1;dashed=0;fillColor=#10739E;strokeColor=#ffffff;strokeWidth=2;verticalLabelPosition=bottom;verticalAlign=top;fontFamily=Helvetica;fontSize=36;fontColor=#FFB366" parent="1" vertex="1">
          <mxGeometry x="1096" y="622" width="90" height="45" as="geometry" />
        </mxCell>
        <mxCell id="2154" value="" style="line;html=1;strokeColor=#23445D;" parent="1" vertex="1">
          <mxGeometry x="660" y="340" width="610" height="10" as="geometry" />
        </mxCell>
        <mxCell id="2169" value="" style="edgeStyle=elbowEdgeStyle;elbow=horizontal;endArrow=none;html=1;strokeColor=#23445D;endFill=0;strokeWidth=4;rounded=1" parent="1" source="2108" edge="1">
          <mxGeometry width="100" height="100" relative="1" as="geometry">
            <mxPoint x="1244" y="303.00000000000006" as="sourcePoint" />
            <mxPoint x="1244.2777777777774" y="345.0833333333335" as="targetPoint" />
          </mxGeometry>
        </mxCell>
        <mxCell id="2170" value="" style="elbow=horizontal;endArrow=none;html=1;strokeColor=#23445D;endFill=0;strokeWidth=4;rounded=1" parent="1" source="2108" target="2138" edge="1">
          <mxGeometry width="100" height="100" relative="1" as="geometry">
            <mxPoint x="729" y="144.00000000000006" as="sourcePoint" />
            <mxPoint x="729.2777777777778" y="186.08333333333337" as="targetPoint" />
          </mxGeometry>
        </mxCell>
        <mxCell id="2171" value="" style="elbow=horizontal;endArrow=none;html=1;strokeColor=#23445D;endFill=0;strokeWidth=4;rounded=1" parent="1" source="2108" target="2111" edge="1">
          <mxGeometry width="100" height="100" relative="1" as="geometry">
            <mxPoint x="739" y="154.00000000000006" as="sourcePoint" />
            <mxPoint x="739.2777777777778" y="196.08333333333337" as="targetPoint" />
          </mxGeometry>
        </mxCell>
        <mxCell id="2172" style="edgeStyle=none;rounded=1;html=1;strokeColor=#23445D;endArrow=none;endFill=0;strokeWidth=4;entryX=0.983;entryY=0.3;entryDx=0;entryDy=0;entryPerimeter=0;" parent="1" source="2112" target="2114" edge="1">
          <mxGeometry relative="1" as="geometry" />
        </mxCell>
        <mxCell id="2176" style="edgeStyle=none;rounded=1;html=1;strokeColor=#23445D;endArrow=none;endFill=0;strokeWidth=4" parent="1" source="2113" target="2117" edge="1">
          <mxGeometry relative="1" as="geometry" />
        </mxCell>
        <mxCell id="2178" value="" style="edgeStyle=elbowEdgeStyle;elbow=horizontal;endArrow=none;html=1;strokeColor=#23445D;endFill=0;strokeWidth=4;rounded=1" parent="1" target="2112" edge="1">
          <mxGeometry width="100" height="100" relative="1" as="geometry">
            <mxPoint x="663" y="345" as="sourcePoint" />
            <mxPoint x="663.2777777777778" y="387.08333333333337" as="targetPoint" />
          </mxGeometry>
        </mxCell>
        <mxCell id="2179" value="" style="edgeStyle=elbowEdgeStyle;elbow=horizontal;endArrow=none;html=1;strokeColor=#23445D;endFill=0;strokeWidth=4;rounded=1" parent="1" target="2113" edge="1">
          <mxGeometry width="100" height="100" relative="1" as="geometry">
            <mxPoint x="1272" y="345" as="sourcePoint" />
            <mxPoint x="1272.2777777777778" y="387.08333333333337" as="targetPoint" />
          </mxGeometry>
        </mxCell>
        <mxCell id="2184" style="edgeStyle=orthogonalEdgeStyle;rounded=1;html=1;strokeColor=#23445D;endArrow=none;endFill=0;strokeWidth=4" parent="1" source="2114" target="2120" edge="1">
          <mxGeometry relative="1" as="geometry">
            <Array as="points">
              <mxPoint x="175" y="492" />
            </Array>
          </mxGeometry>
        </mxCell>
        <mxCell id="2194" style="edgeStyle=orthogonalEdgeStyle;rounded=1;html=1;strokeColor=#23445D;endArrow=none;endFill=0;strokeWidth=4" parent="1" source="2117" target="2140" edge="1">
          <mxGeometry relative="1" as="geometry">
            <Array as="points">
              <mxPoint x="1219" y="640" />
            </Array>
          </mxGeometry>
        </mxCell>
        <mxCell id="MMmAdWNBQblJXcIb9GgJ-2258" value="IPTV&amp;nbsp; &amp;nbsp; &amp;nbsp; &amp;nbsp; &amp;nbsp; &amp;nbsp; &amp;nbsp; &amp;nbsp; &amp;nbsp; &amp;nbsp; &amp;nbsp; &amp;nbsp;" style="rounded=1;whiteSpace=wrap;html=1;strokeColor=none;fillColor=#BAC8D3;fontSize=24;fontColor=#23445D;align=center;opacity=60;" vertex="1" parent="1">
          <mxGeometry x="10" y="634" width="290" height="87" as="geometry" />
        </mxCell>
        <mxCell id="MMmAdWNBQblJXcIb9GgJ-2259" value="" style="shape=mxgraph.cisco.switches.workgroup_switch;html=1;dashed=0;fillColor=#10739E;strokeColor=#ffffff;strokeWidth=2;verticalLabelPosition=bottom;verticalAlign=top;fontFamily=Helvetica;fontSize=36;fontColor=#FFB366" vertex="1" parent="1">
          <mxGeometry x="124" y="569" width="101" height="50" as="geometry" />
        </mxCell>
        <mxCell id="MMmAdWNBQblJXcIb9GgJ-2260" value="" style="shape=mxgraph.cisco.misc.access_point;html=1;dashed=0;fillColor=#10739E;strokeColor=#ffffff;strokeWidth=2;verticalLabelPosition=bottom;verticalAlign=top;fontFamily=Helvetica;fontSize=36;fontColor=#FFB366" vertex="1" parent="1">
          <mxGeometry x="205" y="660" width="75" height="34" as="geometry" />
        </mxCell>
        <mxCell id="MMmAdWNBQblJXcIb9GgJ-2276" style="edgeStyle=orthogonalEdgeStyle;rounded=1;html=1;strokeColor=#23445D;endArrow=none;endFill=0;strokeWidth=4" edge="1" parent="1" source="MMmAdWNBQblJXcIb9GgJ-2259" target="MMmAdWNBQblJXcIb9GgJ-2260">
          <mxGeometry relative="1" as="geometry">
            <Array as="points">
              <mxPoint x="175" y="677" />
            </Array>
          </mxGeometry>
        </mxCell>
        <mxCell id="MMmAdWNBQblJXcIb9GgJ-2293" value="VoIP&amp;nbsp; &amp;nbsp; &amp;nbsp; &amp;nbsp; &amp;nbsp; &amp;nbsp; &amp;nbsp; &amp;nbsp; &amp;nbsp; &amp;nbsp; &amp;nbsp; &amp;nbsp;&amp;nbsp;" style="rounded=1;whiteSpace=wrap;html=1;strokeColor=none;fillColor=#BAC8D3;fontSize=24;fontColor=#23445D;align=center;opacity=60;" vertex="1" parent="1">
          <mxGeometry x="10" y="822" width="290" height="75" as="geometry" />
        </mxCell>
        <mxCell id="MMmAdWNBQblJXcIb9GgJ-2294" value="" style="shape=mxgraph.cisco.switches.workgroup_switch;html=1;dashed=0;fillColor=#10739E;strokeColor=#ffffff;strokeWidth=2;verticalLabelPosition=bottom;verticalAlign=top;fontFamily=Helvetica;fontSize=36;fontColor=#FFB366" vertex="1" parent="1">
          <mxGeometry x="124" y="757" width="101" height="50" as="geometry" />
        </mxCell>
        <mxCell id="MMmAdWNBQblJXcIb9GgJ-2295" value="" style="shape=mxgraph.cisco.misc.access_point;html=1;dashed=0;fillColor=#10739E;strokeColor=#ffffff;strokeWidth=2;verticalLabelPosition=bottom;verticalAlign=top;fontFamily=Helvetica;fontSize=36;fontColor=#FFB366" vertex="1" parent="1">
          <mxGeometry x="205" y="848" width="75" height="34" as="geometry" />
        </mxCell>
        <mxCell id="MMmAdWNBQblJXcIb9GgJ-2304" style="edgeStyle=orthogonalEdgeStyle;rounded=1;html=1;strokeColor=#23445D;endArrow=none;endFill=0;strokeWidth=4" edge="1" parent="1" source="MMmAdWNBQblJXcIb9GgJ-2294" target="MMmAdWNBQblJXcIb9GgJ-2295">
          <mxGeometry relative="1" as="geometry">
            <Array as="points">
              <mxPoint x="175" y="865" />
            </Array>
          </mxGeometry>
        </mxCell>
        <mxCell id="MMmAdWNBQblJXcIb9GgJ-2307" value="RG-NBS5200-24SFP/8GT4XS" style="text;strokeColor=none;fillColor=none;html=1;fontSize=24;fontStyle=1;verticalAlign=middle;align=center;" vertex="1" parent="1">
          <mxGeometry x="813.5" y="373" width="100" height="40" as="geometry" />
        </mxCell>
        <mxCell id="MMmAdWNBQblJXcIb9GgJ-2308" value="RG-NBS5200-24SFP/8GT4XS" style="text;strokeColor=none;fillColor=none;html=1;fontSize=24;fontStyle=1;verticalAlign=middle;align=center;" vertex="1" parent="1">
          <mxGeometry x="1430" y="382" width="100" height="40" as="geometry" />
        </mxCell>
        <mxCell id="MMmAdWNBQblJXcIb9GgJ-2309" value="VoIP&amp;nbsp; &amp;nbsp; &amp;nbsp; &amp;nbsp; &amp;nbsp; &amp;nbsp; &amp;nbsp; &amp;nbsp; &amp;nbsp; &amp;nbsp; &amp;nbsp; &amp;nbsp;&amp;nbsp;" style="rounded=1;whiteSpace=wrap;html=1;strokeColor=none;fillColor=#BAC8D3;fontSize=24;fontColor=#23445D;align=center;opacity=60;" vertex="1" parent="1">
          <mxGeometry x="10" y="1025" width="290" height="75" as="geometry" />
        </mxCell>
        <mxCell id="MMmAdWNBQblJXcIb9GgJ-2310" value="" style="shape=mxgraph.cisco.switches.workgroup_switch;html=1;dashed=0;fillColor=#10739E;strokeColor=#ffffff;strokeWidth=2;verticalLabelPosition=bottom;verticalAlign=top;fontFamily=Helvetica;fontSize=36;fontColor=#FFB366" vertex="1" parent="1">
          <mxGeometry x="124" y="960" width="101" height="50" as="geometry" />
        </mxCell>
        <mxCell id="MMmAdWNBQblJXcIb9GgJ-2311" value="" style="shape=mxgraph.cisco.misc.access_point;html=1;dashed=0;fillColor=#10739E;strokeColor=#ffffff;strokeWidth=2;verticalLabelPosition=bottom;verticalAlign=top;fontFamily=Helvetica;fontSize=36;fontColor=#FFB366" vertex="1" parent="1">
          <mxGeometry x="205" y="1051" width="75" height="34" as="geometry" />
        </mxCell>
        <mxCell id="MMmAdWNBQblJXcIb9GgJ-2312" style="edgeStyle=orthogonalEdgeStyle;rounded=1;html=1;strokeColor=#23445D;endArrow=none;endFill=0;strokeWidth=4" edge="1" parent="1" source="MMmAdWNBQblJXcIb9GgJ-2310" target="MMmAdWNBQblJXcIb9GgJ-2311">
          <mxGeometry relative="1" as="geometry">
            <Array as="points">
              <mxPoint x="175" y="1068" />
            </Array>
          </mxGeometry>
        </mxCell>
        <mxCell id="MMmAdWNBQblJXcIb9GgJ-2313" value="VoIP&amp;nbsp; &amp;nbsp; &amp;nbsp; &amp;nbsp; &amp;nbsp; &amp;nbsp; &amp;nbsp; &amp;nbsp; &amp;nbsp; &amp;nbsp; &amp;nbsp; &amp;nbsp;&amp;nbsp;" style="rounded=1;whiteSpace=wrap;html=1;strokeColor=none;fillColor=#BAC8D3;fontSize=24;fontColor=#23445D;align=center;opacity=60;" vertex="1" parent="1">
          <mxGeometry x="320" y="822" width="290" height="75" as="geometry" />
        </mxCell>
        <mxCell id="MMmAdWNBQblJXcIb9GgJ-2314" value="" style="shape=mxgraph.cisco.switches.workgroup_switch;html=1;dashed=0;fillColor=#10739E;strokeColor=#ffffff;strokeWidth=2;verticalLabelPosition=bottom;verticalAlign=top;fontFamily=Helvetica;fontSize=36;fontColor=#FFB366" vertex="1" parent="1">
          <mxGeometry x="434" y="757" width="101" height="50" as="geometry" />
        </mxCell>
        <mxCell id="MMmAdWNBQblJXcIb9GgJ-2315" value="" style="shape=mxgraph.cisco.misc.access_point;html=1;dashed=0;fillColor=#10739E;strokeColor=#ffffff;strokeWidth=2;verticalLabelPosition=bottom;verticalAlign=top;fontFamily=Helvetica;fontSize=36;fontColor=#FFB366" vertex="1" parent="1">
          <mxGeometry x="515" y="848" width="75" height="34" as="geometry" />
        </mxCell>
        <mxCell id="MMmAdWNBQblJXcIb9GgJ-2316" style="edgeStyle=orthogonalEdgeStyle;rounded=1;html=1;strokeColor=#23445D;endArrow=none;endFill=0;strokeWidth=4" edge="1" parent="1" source="MMmAdWNBQblJXcIb9GgJ-2314" target="MMmAdWNBQblJXcIb9GgJ-2315">
          <mxGeometry relative="1" as="geometry">
            <Array as="points">
              <mxPoint x="485" y="865" />
            </Array>
          </mxGeometry>
        </mxCell>
        <mxCell id="MMmAdWNBQblJXcIb9GgJ-2317" value="VoIP&amp;nbsp; &amp;nbsp; &amp;nbsp; &amp;nbsp; &amp;nbsp; &amp;nbsp; &amp;nbsp; &amp;nbsp; &amp;nbsp; &amp;nbsp; &amp;nbsp; &amp;nbsp;&amp;nbsp;" style="rounded=1;whiteSpace=wrap;html=1;strokeColor=none;fillColor=#BAC8D3;fontSize=24;fontColor=#23445D;align=center;opacity=60;" vertex="1" parent="1">
          <mxGeometry x="320" y="1025" width="290" height="75" as="geometry" />
        </mxCell>
        <mxCell id="MMmAdWNBQblJXcIb9GgJ-2318" value="" style="shape=mxgraph.cisco.switches.workgroup_switch;html=1;dashed=0;fillColor=#10739E;strokeColor=#ffffff;strokeWidth=2;verticalLabelPosition=bottom;verticalAlign=top;fontFamily=Helvetica;fontSize=36;fontColor=#FFB366" vertex="1" parent="1">
          <mxGeometry x="434" y="960" width="101" height="50" as="geometry" />
        </mxCell>
        <mxCell id="MMmAdWNBQblJXcIb9GgJ-2319" value="" style="shape=mxgraph.cisco.misc.access_point;html=1;dashed=0;fillColor=#10739E;strokeColor=#ffffff;strokeWidth=2;verticalLabelPosition=bottom;verticalAlign=top;fontFamily=Helvetica;fontSize=36;fontColor=#FFB366" vertex="1" parent="1">
          <mxGeometry x="515" y="1051" width="75" height="34" as="geometry" />
        </mxCell>
        <mxCell id="MMmAdWNBQblJXcIb9GgJ-2320" style="edgeStyle=orthogonalEdgeStyle;rounded=1;html=1;strokeColor=#23445D;endArrow=none;endFill=0;strokeWidth=4" edge="1" parent="1" source="MMmAdWNBQblJXcIb9GgJ-2318" target="MMmAdWNBQblJXcIb9GgJ-2319">
          <mxGeometry relative="1" as="geometry">
            <Array as="points">
              <mxPoint x="485" y="1068" />
            </Array>
          </mxGeometry>
        </mxCell>
        <mxCell id="MMmAdWNBQblJXcIb9GgJ-2321" value="Wi-Fi&amp;nbsp; &amp;nbsp; &amp;nbsp; &amp;nbsp; &amp;nbsp; &amp;nbsp; &amp;nbsp;&amp;nbsp;" style="rounded=1;whiteSpace=wrap;html=1;strokeColor=none;fillColor=#BAC8D3;fontSize=24;fontColor=#23445D;align=center;opacity=60;" vertex="1" parent="1">
          <mxGeometry x="630" y="1025" width="290" height="75" as="geometry" />
        </mxCell>
        <mxCell id="MMmAdWNBQblJXcIb9GgJ-2322" value="" style="shape=mxgraph.cisco.switches.workgroup_switch;html=1;dashed=0;fillColor=#10739E;strokeColor=#ffffff;strokeWidth=2;verticalLabelPosition=bottom;verticalAlign=top;fontFamily=Helvetica;fontSize=36;fontColor=#FFB366" vertex="1" parent="1">
          <mxGeometry x="740" y="960" width="101" height="50" as="geometry" />
        </mxCell>
        <mxCell id="MMmAdWNBQblJXcIb9GgJ-2323" value="" style="shape=mxgraph.cisco.misc.access_point;html=1;dashed=0;fillColor=#10739E;strokeColor=#ffffff;strokeWidth=2;verticalLabelPosition=bottom;verticalAlign=top;fontFamily=Helvetica;fontSize=36;fontColor=#FFB366" vertex="1" parent="1">
          <mxGeometry x="825" y="1051" width="75" height="34" as="geometry" />
        </mxCell>
        <mxCell id="MMmAdWNBQblJXcIb9GgJ-2324" style="edgeStyle=orthogonalEdgeStyle;rounded=1;html=1;strokeColor=#23445D;endArrow=none;endFill=0;strokeWidth=4" edge="1" parent="1" source="MMmAdWNBQblJXcIb9GgJ-2322" target="MMmAdWNBQblJXcIb9GgJ-2323">
          <mxGeometry relative="1" as="geometry">
            <Array as="points">
              <mxPoint x="795" y="1068" />
            </Array>
          </mxGeometry>
        </mxCell>
        <mxCell id="MMmAdWNBQblJXcIb9GgJ-2327" value="Locks&amp;nbsp; &amp;nbsp; &amp;nbsp; &amp;nbsp; &amp;nbsp; &amp;nbsp; &amp;nbsp; &amp;nbsp; &amp;nbsp; &amp;nbsp; &amp;nbsp;" style="rounded=1;whiteSpace=wrap;html=1;strokeColor=none;fillColor=#BAC8D3;fontSize=24;fontColor=#23445D;align=center;opacity=60;" vertex="1" parent="1">
          <mxGeometry x="958.5" y="789" width="283" height="85" as="geometry" />
        </mxCell>
        <mxCell id="MMmAdWNBQblJXcIb9GgJ-2328" value="" style="shape=mxgraph.cisco.switches.workgroup_switch;html=1;dashed=0;fillColor=#10739E;strokeColor=#ffffff;strokeWidth=2;verticalLabelPosition=bottom;verticalAlign=top;fontFamily=Helvetica;fontSize=36;fontColor=#FFB366" vertex="1" parent="1">
          <mxGeometry x="1167.5" y="724" width="101" height="50" as="geometry" />
        </mxCell>
        <mxCell id="MMmAdWNBQblJXcIb9GgJ-2329" value="" style="shape=mxgraph.cisco.hubs_and_gateways.100baset_hub;html=1;dashed=0;fillColor=#10739E;strokeColor=#ffffff;strokeWidth=2;verticalLabelPosition=bottom;verticalAlign=top;fontFamily=Helvetica;fontSize=36;fontColor=#FFB366" vertex="1" parent="1">
          <mxGeometry x="1095.5" y="812" width="90" height="45" as="geometry" />
        </mxCell>
        <mxCell id="MMmAdWNBQblJXcIb9GgJ-2330" style="edgeStyle=orthogonalEdgeStyle;rounded=1;html=1;strokeColor=#23445D;endArrow=none;endFill=0;strokeWidth=4" edge="1" parent="1" source="MMmAdWNBQblJXcIb9GgJ-2328" target="MMmAdWNBQblJXcIb9GgJ-2329">
          <mxGeometry relative="1" as="geometry">
            <Array as="points">
              <mxPoint x="1218.5" y="830" />
            </Array>
          </mxGeometry>
        </mxCell>
        <mxCell id="MMmAdWNBQblJXcIb9GgJ-2331" value="Locks&amp;nbsp; &amp;nbsp; &amp;nbsp; &amp;nbsp; &amp;nbsp; &amp;nbsp; &amp;nbsp; &amp;nbsp; &amp;nbsp; &amp;nbsp; &amp;nbsp;" style="rounded=1;whiteSpace=wrap;html=1;strokeColor=none;fillColor=#BAC8D3;fontSize=24;fontColor=#23445D;align=center;opacity=60;" vertex="1" parent="1">
          <mxGeometry x="962" y="979" width="283" height="85" as="geometry" />
        </mxCell>
        <mxCell id="MMmAdWNBQblJXcIb9GgJ-2332" value="" style="shape=mxgraph.cisco.switches.workgroup_switch;html=1;dashed=0;fillColor=#10739E;strokeColor=#ffffff;strokeWidth=2;verticalLabelPosition=bottom;verticalAlign=top;fontFamily=Helvetica;fontSize=36;fontColor=#FFB366" vertex="1" parent="1">
          <mxGeometry x="1171" y="914" width="101" height="50" as="geometry" />
        </mxCell>
        <mxCell id="MMmAdWNBQblJXcIb9GgJ-2333" value="" style="shape=mxgraph.cisco.hubs_and_gateways.100baset_hub;html=1;dashed=0;fillColor=#10739E;strokeColor=#ffffff;strokeWidth=2;verticalLabelPosition=bottom;verticalAlign=top;fontFamily=Helvetica;fontSize=36;fontColor=#FFB366" vertex="1" parent="1">
          <mxGeometry x="1099" y="1002" width="90" height="45" as="geometry" />
        </mxCell>
        <mxCell id="MMmAdWNBQblJXcIb9GgJ-2334" style="edgeStyle=orthogonalEdgeStyle;rounded=1;html=1;strokeColor=#23445D;endArrow=none;endFill=0;strokeWidth=4" edge="1" parent="1" source="MMmAdWNBQblJXcIb9GgJ-2332" target="MMmAdWNBQblJXcIb9GgJ-2333">
          <mxGeometry relative="1" as="geometry">
            <Array as="points">
              <mxPoint x="1222" y="1020" />
            </Array>
          </mxGeometry>
        </mxCell>
        <mxCell id="MMmAdWNBQblJXcIb9GgJ-2335" value="RG-ES224GC" style="text;strokeColor=none;fillColor=none;html=1;fontSize=24;fontStyle=1;verticalAlign=middle;align=center;" vertex="1" parent="1">
          <mxGeometry x="1330" y="545" width="100" height="38" as="geometry" />
        </mxCell>
        <mxCell id="MMmAdWNBQblJXcIb9GgJ-2336" value="RG-ES224GC" style="text;strokeColor=none;fillColor=none;html=1;fontSize=24;fontStyle=1;verticalAlign=middle;align=center;" vertex="1" parent="1">
          <mxGeometry x="1329" y="732" width="100" height="38" as="geometry" />
        </mxCell>
        <mxCell id="MMmAdWNBQblJXcIb9GgJ-2337" value="RG-ES224GC" style="text;strokeColor=none;fillColor=none;html=1;fontSize=24;fontStyle=1;verticalAlign=middle;align=center;" vertex="1" parent="1">
          <mxGeometry x="1328" y="926" width="100" height="38" as="geometry" />
        </mxCell>
        <mxCell id="MMmAdWNBQblJXcIb9GgJ-2339" value="" style="verticalLabelPosition=bottom;verticalAlign=top;html=1;shape=mxgraph.basic.rounded_frame;dx=10;whiteSpace=wrap;" vertex="1" parent="1">
          <mxGeometry y="730" width="930" height="410" as="geometry" />
        </mxCell>
        <mxCell id="MMmAdWNBQblJXcIb9GgJ-2340" value="RG-ES226GC-P" style="text;strokeColor=none;fillColor=none;html=1;fontSize=24;fontStyle=1;verticalAlign=middle;align=center;" vertex="1" parent="1">
          <mxGeometry x="713.5" y="830" width="100" height="38" as="geometry" />
        </mxCell>
        <mxCell id="MMmAdWNBQblJXcIb9GgJ-2341" style="edgeStyle=none;rounded=1;html=1;strokeColor=#23445D;endArrow=none;endFill=0;strokeWidth=4;entryX=0.69;entryY=0;entryDx=0;entryDy=0;entryPerimeter=0;exitX=0.167;exitY=0.938;exitDx=0;exitDy=0;exitPerimeter=0;" edge="1" parent="1" source="2112" target="MMmAdWNBQblJXcIb9GgJ-2339">
          <mxGeometry relative="1" as="geometry">
            <mxPoint x="640" y="440" as="sourcePoint" />
            <mxPoint x="233" y="409" as="targetPoint" />
          </mxGeometry>
        </mxCell>
        <mxCell id="MMmAdWNBQblJXcIb9GgJ-2342" value="RG-NBS3100-24GT4SFP" style="text;strokeColor=none;fillColor=none;html=1;fontSize=24;fontStyle=1;verticalAlign=middle;align=center;" vertex="1" parent="1">
          <mxGeometry x="330" y="410" width="100" height="40" as="geometry" />
        </mxCell>
        <mxCell id="MMmAdWNBQblJXcIb9GgJ-2343" value="RG-NBS3100-24GT4SFP" style="text;strokeColor=none;fillColor=none;html=1;fontSize=24;fontStyle=1;verticalAlign=middle;align=center;" vertex="1" parent="1">
          <mxGeometry x="330" y="574" width="100" height="40" as="geometry" />
        </mxCell>
        <mxCell id="MMmAdWNBQblJXcIb9GgJ-2344" value="" style="edgeStyle=elbowEdgeStyle;elbow=horizontal;endArrow=none;html=1;strokeColor=#23445D;endFill=0;strokeWidth=4;rounded=1;exitX=0.5;exitY=1;exitDx=0;exitDy=0;exitPerimeter=0;entryX=0.98;entryY=0.5;entryDx=0;entryDy=0;entryPerimeter=0;" edge="1" parent="1" target="MMmAdWNBQblJXcIb9GgJ-2332">
          <mxGeometry width="100" height="100" relative="1" as="geometry">
            <mxPoint x="1301" y="434" as="sourcePoint" />
            <mxPoint x="1306.0500000000002" y="927.3499999999999" as="targetPoint" />
            <Array as="points">
              <mxPoint x="1299" y="720" />
            </Array>
          </mxGeometry>
        </mxCell>
        <mxCell id="MMmAdWNBQblJXcIb9GgJ-2345" style="edgeStyle=none;rounded=1;html=1;strokeColor=#23445D;endArrow=none;endFill=0;strokeWidth=4" edge="1" parent="1">
          <mxGeometry relative="1" as="geometry">
            <mxPoint x="1302" y="744" as="sourcePoint" />
            <mxPoint x="1272" y="744" as="targetPoint" />
          </mxGeometry>
        </mxCell>
        <mxCell id="MMmAdWNBQblJXcIb9GgJ-2346" style="edgeStyle=none;rounded=1;html=1;strokeColor=#23445D;endArrow=none;endFill=0;strokeWidth=4;entryX=0.901;entryY=-0.013;entryDx=0;entryDy=0;entryPerimeter=0;" edge="1" parent="1" target="MMmAdWNBQblJXcIb9GgJ-2259">
          <mxGeometry relative="1" as="geometry">
            <mxPoint x="630" y="420" as="sourcePoint" />
            <mxPoint x="652" y="740" as="targetPoint" />
          </mxGeometry>
        </mxCell>
        <mxCell id="MMmAdWNBQblJXcIb9GgJ-2347" value="" style="image;html=1;image=img/lib/clip_art/computers/Server_128x128.png" vertex="1" parent="1">
          <mxGeometry x="770" y="475" width="80" height="80" as="geometry" />
        </mxCell>
        <mxCell id="MMmAdWNBQblJXcIb9GgJ-2348" value="" style="image;html=1;image=img/lib/clip_art/computers/Server_128x128.png" vertex="1" parent="1">
          <mxGeometry x="970" y="475" width="80" height="80" as="geometry" />
        </mxCell>
        <mxCell id="MMmAdWNBQblJXcIb9GgJ-2349" value="" style="sketch=0;aspect=fixed;pointerEvents=1;shadow=0;dashed=0;html=1;strokeColor=none;labelPosition=center;verticalLabelPosition=bottom;verticalAlign=top;align=center;fillColor=#00188D;shape=mxgraph.azure.server" vertex="1" parent="1">
          <mxGeometry x="766" y="607" width="143.33" height="43" as="geometry" />
        </mxCell>
        <mxCell id="MMmAdWNBQblJXcIb9GgJ-2350" style="edgeStyle=none;rounded=1;html=1;strokeColor=#23445D;endArrow=none;endFill=0;strokeWidth=4;entryX=0.295;entryY=0.031;entryDx=0;entryDy=0;entryPerimeter=0;" edge="1" parent="1" source="MMmAdWNBQblJXcIb9GgJ-2347" target="MMmAdWNBQblJXcIb9GgJ-2349">
          <mxGeometry relative="1" as="geometry">
            <mxPoint x="652" y="440" as="sourcePoint" />
            <mxPoint x="652" y="740" as="targetPoint" />
          </mxGeometry>
        </mxCell>
        <mxCell id="MMmAdWNBQblJXcIb9GgJ-2351" style="edgeStyle=none;rounded=1;html=1;strokeColor=#23445D;endArrow=none;endFill=0;strokeWidth=4;entryX=0.5;entryY=0;entryDx=0;entryDy=0;entryPerimeter=0;exitX=0;exitY=0.5;exitDx=0;exitDy=0;" edge="1" parent="1" source="MMmAdWNBQblJXcIb9GgJ-2348" target="MMmAdWNBQblJXcIb9GgJ-2349">
          <mxGeometry relative="1" as="geometry">
            <mxPoint x="819" y="565" as="sourcePoint" />
            <mxPoint x="818" y="618" as="targetPoint" />
            <Array as="points">
              <mxPoint x="840" y="560" />
            </Array>
          </mxGeometry>
        </mxCell>
        <mxCell id="MMmAdWNBQblJXcIb9GgJ-2352" style="edgeStyle=none;rounded=1;html=1;strokeColor=#23445D;endArrow=none;endFill=0;strokeWidth=4;exitX=0;exitY=1;exitDx=0;exitDy=0;exitPerimeter=0;" edge="1" parent="1" source="2113" target="MMmAdWNBQblJXcIb9GgJ-2347">
          <mxGeometry relative="1" as="geometry">
            <mxPoint x="959" y="380" as="sourcePoint" />
            <mxPoint x="827" y="472" as="targetPoint" />
            <Array as="points">
              <mxPoint x="830" y="440" />
            </Array>
          </mxGeometry>
        </mxCell>
        <mxCell id="MMmAdWNBQblJXcIb9GgJ-2353" style="edgeStyle=none;rounded=1;html=1;strokeColor=#23445D;endArrow=none;endFill=0;strokeWidth=4;" edge="1" parent="1">
          <mxGeometry relative="1" as="geometry">
            <mxPoint x="1260" y="440" as="sourcePoint" />
            <mxPoint x="1000" y="481" as="targetPoint" />
            <Array as="points">
              <mxPoint x="1009" y="446" />
            </Array>
          </mxGeometry>
        </mxCell>
        <mxCell id="MMmAdWNBQblJXcIb9GgJ-2354" value="USGFLEX100-&lt;br/&gt;RU0102F" style="text;strokeColor=none;fillColor=none;html=1;fontSize=24;fontStyle=1;verticalAlign=middle;align=center;" vertex="1" parent="1">
          <mxGeometry x="830" y="170" width="100" height="40" as="geometry" />
        </mxCell>
      </root>
    </mxGraphModel>
  </diagram>
</mxfile>
